<?xml version="1.0" encoding="UTF-8" standalone="no"?>
<!-- Created with Inkscape (http://www.inkscape.org/) -->

<svg
   xmlns:dc="http://purl.org/dc/elements/1.1/"
   xmlns:cc="http://creativecommons.org/ns#"
   xmlns:rdf="http://www.w3.org/1999/02/22-rdf-syntax-ns#"
   xmlns:svg="http://www.w3.org/2000/svg"
   xmlns="http://www.w3.org/2000/svg"
   xmlns:sodipodi="http://sodipodi.sourceforge.net/DTD/sodipodi-0.dtd"
   xmlns:inkscape="http://www.inkscape.org/namespaces/inkscape"
   width="210mm"
   height="297mm"
   viewBox="0 0 210 297"
   version="1.1"
   id="svg8"
   inkscape:export-filename="/home/alunoic/Downloads/add.png"
   inkscape:export-xdpi="72.633118"
   inkscape:export-ydpi="72.633118"
   inkscape:version="0.92.3 (2405546, 2018-03-11)"
   sodipodi:docname="desenhando.svg">
  <defs
     id="defs2" />
  <sodipodi:namedview
     id="base"
     pagecolor="#ffffff"
     bordercolor="#666666"
     borderopacity="1.0"
     inkscape:pageopacity="0.0"
     inkscape:pageshadow="2"
     inkscape:zoom="1.979899"
     inkscape:cx="320.60445"
     inkscape:cy="899.80147"
     inkscape:document-units="mm"
     inkscape:current-layer="layer1"
     showgrid="false"
     inkscape:snap-global="false"
     inkscape:window-width="1373"
     inkscape:window-height="836"
     inkscape:window-x="67"
     inkscape:window-y="27"
     inkscape:window-maximized="1" />
  <metadata
     id="metadata5">
    <rdf:RDF>
      <cc:Work
         rdf:about="">
        <dc:format>image/svg+xml</dc:format>
        <dc:type
           rdf:resource="http://purl.org/dc/dcmitype/StillImage" />
        <dc:title></dc:title>
      </cc:Work>
    </rdf:RDF>
  </metadata>
  <g
     inkscape:label="Camada 1"
     inkscape:groupmode="layer"
     id="layer1">
    <path
       style="fill:#55ddff;stroke-width:0.35714287"
       d="M 566.27148 253.51953 L 354.50391 253.73633 C 148.02786 253.94869 142.69765 253.97212 141.21289 254.62891 C 139.39343 255.43375 137.62704 257.34603 136.96094 259.23047 C 136.5697 260.33743 136.47656 265.80935 136.47656 287.74219 C 136.47656 314.86976 136.47762 314.88668 137.24805 316.31445 C 138.23181 318.13757 139.69264 319.52103 141.37695 320.22461 C 142.57096 320.72337 159.54397 320.7793 309.83203 320.7793 C 450.21177 320.7793 477.03718 320.856 477.43359 321.26367 C 477.69315 321.5306 481.60128 328.19887 486.11914 336.08203 L 494.33398 350.41602 L 529.26172 350.41797 C 566.55641 350.42125 565.68355 350.46111 566.52344 348.73828 C 566.99377 347.77358 567.11771 255.74288 566.65039 254.51367 L 566.27148 253.51953 z M 192.14258 260.37695 A 28.571428 27.142857 0 0 1 220.71484 287.51953 A 28.571428 27.142857 0 0 1 192.14258 314.66211 A 28.571428 27.142857 0 0 1 163.57227 287.51953 A 28.571428 27.142857 0 0 1 192.14258 260.37695 z M 293.57227 260.37695 A 28.571428 27.142857 0 0 1 322.14258 287.51953 A 28.571428 27.142857 0 0 1 293.57227 314.66211 A 28.571428 27.142857 0 0 1 265 287.51953 A 28.571428 27.142857 0 0 1 293.57227 260.37695 z M 394.28516 260.37695 A 28.571428 27.142857 0 0 1 422.85742 287.51953 A 28.571428 27.142857 0 0 1 394.28516 314.66211 A 28.571428 27.142857 0 0 1 365.71484 287.51953 A 28.571428 27.142857 0 0 1 394.28516 260.37695 z M 342.90625 280.7793 C 343.7671 280.7793 343.79883 280.86152 343.79883 283.09961 L 343.79883 285.42188 L 346.11914 285.42188 C 348.35727 285.42187 348.44141 285.45364 348.44141 286.31445 C 348.44141 287.17531 348.35724 287.20703 346.11914 287.20703 L 343.79883 287.20703 L 343.79883 289.5293 C 343.79883 291.76742 343.76705 291.84961 342.90625 291.84961 C 342.04539 291.84961 342.01172 291.76739 342.01172 289.5293 L 342.01172 287.20703 L 339.69141 287.20703 C 337.45328 287.20703 337.36914 287.17526 337.36914 286.31445 C 337.36914 285.45359 337.45331 285.42188 339.69141 285.42188 L 342.01172 285.42188 L 342.01172 283.09961 C 342.01172 280.86149 342.04544 280.7793 342.90625 280.7793 z M 233.08398 284.34961 L 238.61914 284.34961 L 244.15625 284.34961 L 244.15625 285.24219 L 244.15625 286.13477 L 238.61914 286.13477 L 233.08398 286.13477 L 233.08398 285.24219 L 233.08398 284.34961 z M 233.08398 287.92188 L 238.61914 287.92188 L 244.15625 287.92188 L 244.15625 288.81445 L 244.15625 289.70703 L 238.61914 289.70703 L 233.08398 289.70703 L 233.08398 288.81445 L 233.08398 287.92188 z "
       id="path3758"
       transform="scale(0.26458333)" />
    <path
       style="fill:none;stroke:#000000;stroke-width:0.32167462px;stroke-linecap:butt;stroke-linejoin:miter;stroke-opacity:1"
       d="m 126.15122,85.05349 4.54358,7.90111 h 16.71591 c 2.86686,0 2.79642,0.06236 2.79477,-2.872941 l -0.012,-21.332377 c -0.001,-2.063701 0.19317,-1.868547 -1.7906,-1.866847 l -110.035474,0.09428 c -2.007872,0.0017 -2.451172,1.490374 -2.47754,2.54391 -0.108439,4.332773 -0.0478,13.002301 -0.0478,13.002301 -0.005,1.371697 0.954754,2.554227 2.262669,2.55388 l 88.046485,-0.02335"
       id="path3717"
       inkscape:connector-curvature="0"
       sodipodi:nodetypes="ccsssssszzc" />
    <text
       xml:space="preserve"
       style="font-style:normal;font-weight:normal;font-size:4.58611107px;line-height:1.25;font-family:sans-serif;letter-spacing:0px;word-spacing:0px;fill:#000000;fill-opacity:1;stroke:none;stroke-width:0.26458332"
       x="61.23214"
       y="77.395828"
       id="text3750"><tspan
         sodipodi:role="line"
         id="tspan3748"
         x="61.23214"
         y="77.395828"
         style="font-size:4.58611107px;stroke-width:0.26458332">=</tspan></text>
    <text
       xml:space="preserve"
       style="font-style:normal;font-weight:normal;font-size:4.58611107px;line-height:1.25;font-family:sans-serif;letter-spacing:0px;word-spacing:0px;fill:#000000;fill-opacity:1;stroke:none;stroke-width:0.26458332"
       x="88.824409"
       y="77.206833"
       id="text3754"><tspan
         sodipodi:role="line"
         id="tspan3752"
         x="88.824409"
         y="77.206833"
         style="font-size:4.58611107px;stroke-width:0.26458332">+</tspan></text>
    <g
       id="g4610"
       inkscape:export-xdpi="72"
       inkscape:export-ydpi="72">
      <ellipse
         ry="7.1815476"
         rx="7.5595236"
         cy="33.928577"
         cx="89.958328"
         id="path3725-7"
         style="fill:#ffffff;stroke:#000000;stroke-width:0.22329913;stroke-opacity:1" />
      <text
         id="text4605"
         y="35.209499"
         x="86.728958"
         style="font-style:normal;font-weight:normal;font-size:3.52777767px;line-height:1.25;font-family:sans-serif;letter-spacing:0px;word-spacing:0px;fill:#000000;fill-opacity:1;stroke:none;stroke-width:0.26458332"
         xml:space="preserve"><tspan
           style="font-size:3.52777767px;stroke-width:0.26458332"
           y="35.209499"
           x="86.728958"
           id="tspan4603"
           sodipodi:role="line">$R1</tspan></text>
    </g>
  </g>
</svg>
